M48
; DRILL file {KiCad (5.1.2)-2} date 01/02/20 13:07:16
; FORMAT={-:-/ absolute / inch / decimal}
; #@! TF.CreationDate,2020-01-02T13:07:16+01:00
; #@! TF.GenerationSoftware,Kicad,Pcbnew,(5.1.2)-2
; #@! TF.FileFunction,Plated,1,2,PTH
FMAT,2
INCH
T1C0.0079
T2C0.0118
T3C0.0157
T4C0.0177
T5C0.0197
T6C0.0217
T7C0.0236
T8C0.0256
T9C0.0276
T10C0.0315
T11C0.0354
T12C0.0374
%
G90
G05
T1
X2.7312Y0.4
X2.7312Y0.3449
X2.7785Y0.4
X2.7785Y0.3449
X2.8257Y0.4
X2.8257Y0.3449
T2
X0.1002Y0.2434
X0.1016Y1.3902
X0.1402Y1.3946
X0.1496Y0.2444
X0.1814Y1.3918
X0.1876Y0.243
X0.3845Y0.3201
X0.3883Y1.6071
X0.3964Y0.0627
X0.4564Y0.4807
X0.4606Y0.2388
X0.5184Y0.0627
X0.5259Y1.3773
X0.5922Y0.0627
X0.7399Y0.3221
X0.7471Y1.6019
X0.7504Y0.0647
X0.8124Y0.4807
X0.8124Y0.4807
X0.819Y0.2348
X0.8666Y1.4174
X0.8744Y0.0647
X0.9482Y0.0647
X1.085Y0.5318
X1.0906Y0.836
X1.0987Y0.7268
X1.101Y0.5856
X1.1025Y0.4515
X1.1025Y0.3298
X1.1025Y0.2559
X1.1335Y2.2431
X1.1389Y0.5161
X1.1423Y2.1389
X1.1652Y0.5168
X1.2058Y1.9647
X1.2162Y0.2768
X1.24Y1.0274
X1.2451Y0.2793
X1.2648Y0.0656
X1.2712Y0.1258
X1.2738Y0.281
X1.2752Y0.247
X1.3015Y0.2823
X1.3646Y0.797
X1.3676Y0.3152
X1.389Y0.2955
X1.4062Y2.9672
X1.409Y0.2744
X1.4184Y0.1646
X1.4188Y0.8964
X1.426Y0.2544
X1.4306Y0.0291
X1.436Y1.8484
X1.4438Y0.9046
X1.4576Y0.6842
X1.4576Y0.6606
X1.4592Y2.5644
X1.4726Y0.8964
X1.4859Y0.4948
X1.4859Y0.4664
X1.4904Y1.1032
X1.4966Y0.9122
X1.502Y0.0289
X1.5061Y0.4825
X1.5061Y0.4451
X1.5102Y2.6698
X1.5102Y2.6698
X1.5172Y0.8964
X1.5202Y1.1708
X1.5228Y1.976
X1.5454Y0.9112
X1.5473Y0.0291
X1.5502Y0.5862
X1.555Y0.6756
X1.5598Y1.4646
X1.5688Y1.1598
X1.5716Y0.4999
X1.572Y0.9086
X1.5726Y1.6406
X1.5956Y0.8964
X1.597Y2.0782
X1.6192Y0.146
X1.6256Y0.1009
X1.6304Y0.7942
X1.6306Y2.789
X1.6312Y0.9135
X1.6361Y0.122
X1.6366Y0.4797
X1.6392Y1.706
X1.6428Y0.2068
X1.6544Y0.7848
X1.6584Y0.9072
X1.6612Y0.461
X1.6676Y0.3792
X1.6782Y0.7962
X1.6802Y0.2704
X1.6805Y0.1506
X1.6852Y0.4178
X1.6876Y0.4423
X1.688Y0.9068
X1.6987Y2.127
X1.7014Y0.7508
X1.7026Y0.7988
X1.7043Y0.2017
X1.7068Y0.401
X1.7125Y2.49
X1.723Y0.9074
X1.7244Y2.6947
X1.7376Y0.1508
X1.74Y0.3498
X1.7436Y0.628
X1.7521Y0.9135
X1.7638Y0.1546
X1.7642Y0.3992
X1.7666Y0.37
X1.77Y2.4316
X1.7724Y0.6363
X1.7734Y0.7005
X1.7769Y0.4336
X1.7888Y1.1852
X1.7931Y0.1568
X1.7992Y0.9037
X1.8016Y1.9084
X1.8068Y0.3246
X1.81Y1.2032
X1.8258Y0.3446
X1.8266Y1.4924
X1.8288Y1.1766
X1.829Y0.9022
X1.8316Y1.6058
X1.838Y0.0524
X1.8398Y0.3254
X1.8486Y0.296
X1.8546Y0.174
X1.8552Y3.0002
X1.858Y0.9014
X1.8606Y1.6034
X1.8626Y0.0522
X1.8669Y1.1163
X1.8679Y1.9408
X1.8698Y1.1776
X1.8722Y0.1927
X1.8722Y0.1544
X1.8738Y0.2897
X1.8742Y1.2712
X1.8752Y0.4992
X1.8787Y1.484
X1.8852Y1.6128
X1.8858Y1.1324
X1.8862Y0.0524
X1.8957Y1.242
X1.8964Y1.1562
X1.9032Y1.1126
X1.9042Y1.089
X1.9126Y1.609
X1.9156Y0.0406
X1.9296Y1.4862
X1.931Y0.1728
X1.9338Y0.3572
X1.9344Y2.8847
X1.9598Y0.0224
X1.9612Y0.4178
X1.9668Y0.4534
X1.9674Y0.2942
X1.9716Y0.3944
X1.9764Y0.3544
X1.993Y0.5356
X2.0032Y0.0494
X2.0222Y0.8464
X2.0249Y1.4836
X2.0264Y1.351
X2.0324Y0.561
X2.0536Y0.9832
X2.0716Y2.6641
X2.0832Y0.9476
X2.0856Y0.6586
X2.0904Y0.0778
X2.1023Y1.2583
X2.1088Y2.6828
X2.1138Y0.4667
X2.127Y1.3832
X2.1412Y1.2283
X2.1549Y0.619
X2.1619Y1.6661
X2.171Y0.1982
X2.2098Y1.6197
X2.2126Y0.5848
X2.2157Y0.3501
X2.2298Y0.2108
X2.2354Y1.5246
X2.2366Y0.5974
X2.248Y1.6092
X2.2568Y0.5804
X2.2578Y1.0436
X2.2626Y1.521
X2.2713Y1.2283
X2.2734Y0.1764
X2.2739Y0.4084
X2.2766Y0.7113
X2.2785Y0.6621
X2.2824Y1.2956
X2.293Y1.5764
X2.3024Y2.85
X2.3041Y0.9456
X2.3082Y0.1192
X2.3194Y0.1932
X2.3274Y0.7625
X2.3289Y1.3274
X2.3289Y1.2535
X2.3322Y0.0356
X2.3431Y1.0491
X2.346Y0.5908
X2.3688Y1.374
X2.3738Y3.2388
X2.3738Y3.1204
X2.3786Y0.3674
X2.379Y0.7216
X2.3816Y1.7686
X2.3826Y0.1938
X2.3976Y0.4208
X2.405Y0.5313
X2.4058Y1.182
X2.4172Y0.469
X2.4321Y0.9456
X2.4321Y0.6621
X2.4384Y1.413
X2.4474Y0.5906
X2.4514Y0.5301
X2.4516Y0.0398
X2.4576Y0.9456
X2.4754Y1.579
X2.4832Y0.6621
X2.4994Y0.4748
X2.513Y0.1702
X2.5559Y1.4123
X2.5648Y0.639
X2.5679Y0.4649
X2.5764Y1.182
X2.577Y2.848
X2.5913Y0.7674
X2.599Y0.8152
X2.6258Y0.5562
X2.6304Y1.4996
X2.6304Y1.4026
X2.6311Y1.2595
X2.6422Y0.143
X2.6538Y0.5928
X2.7064Y1.349
X2.7496Y0.1238
X2.7637Y1.5015
X2.7741Y1.3884
X2.7805Y1.2595
X2.7806Y1.9242
X2.7982Y2.8847
X2.8335Y0.196
X2.8535Y0.275
X2.8552Y1.3514
X2.861Y2.4496
X2.8852Y2.2186
X2.8868Y0.4818
X2.9178Y3.016
X2.9278Y1.2016
X2.938Y0.2522
X3.0252Y1.186
X3.0288Y1.4176
X3.0302Y0.4362
X3.0444Y1.5616
X3.0794Y3.0046
X3.0922Y2.664
X3.0976Y0.2862
X3.1176Y0.664
X3.1272Y2.79
X3.1272Y2.5314
X3.1352Y2.7028
X3.1434Y0.1093
X3.1454Y2.6108
X3.162Y1.6168
X3.166Y2.7784
X3.168Y1.4596
X3.198Y1.0958
X3.2028Y0.0392
X3.2062Y0.1952
X3.2177Y0.6644
X3.2393Y0.2667
X3.2512Y2.8956
X3.2682Y2.1152
X3.2742Y0.4012
X3.2914Y2.7536
X3.3104Y0.6922
X3.3118Y2.1748
X3.335Y0.4522
X3.3484Y2.4244
X3.3516Y0.6774
X3.3782Y0.5833
X3.3836Y0.0672
X3.3848Y0.3693
X3.4134Y0.8456
X3.4152Y2.4974
X3.4212Y0.747
X3.4261Y0.7204
X3.4396Y0.5316
X3.4466Y2.3376
X3.4562Y0.1171
X3.4616Y0.4054
X3.5118Y2.4048
X3.5124Y0.3228
X3.5242Y0.5016
X3.5243Y0.8554
X3.5243Y0.666
X3.5538Y0.4722
X3.6114Y0.4072
X3.6132Y0.2772
X3.6273Y0.7601
X3.6666Y2.1436
T3
X1.192Y0.9492
X1.3249Y0.1842
X1.594Y0.7312
X1.594Y0.6094
X1.6974Y0.7005
X1.6974Y0.6363
X2.0915Y0.5551
T4
X0.0413Y0.2777
X0.0433Y1.3856
X0.0433Y1.3117
X0.0478Y0.3516
X0.2078Y1.2866
X0.2373Y1.3836
X0.2393Y0.3516
X0.2393Y0.2777
X0.4054Y1.4141
X0.4685Y2.4808
X0.4687Y1.9452
X0.4689Y2.135
X0.4691Y2.3637
X0.4691Y2.2904
X0.4718Y1.5975
X0.5318Y1.1819
X0.5425Y1.9452
X0.5427Y2.135
X0.5429Y2.2904
X0.5699Y0.3187
X0.5932Y1.5975
X0.6046Y1.3398
X0.7624Y1.4054
X0.8222Y1.5967
X0.8862Y1.1807
X0.9306Y0.3258
X0.9462Y1.5967
X0.9586Y1.3392
X1.7986Y2.0984
X1.8033Y2.5445
X1.8033Y2.3295
X1.9068Y1.9532
X1.9726Y1.6154
X2.019Y1.82
X2.026Y1.2252
T5
X2.2232Y1.0192
X2.3042Y1.0134
X2.3288Y0.3808
X2.4472Y1.0324
X2.4598Y0.3558
X2.5164Y1.0314
X2.6526Y0.2542
X2.8047Y0.275
X2.9293Y0.3689
T6
X0.7662Y2.1412
X0.7662Y2.0912
X0.7662Y2.0412
X0.7662Y1.9912
X0.7662Y1.9412
X0.7632Y2.4846
X0.7632Y2.4346
X0.7632Y2.3846
X0.7632Y2.3346
X0.7632Y2.2846
T7
X1.4013Y2.0625
X1.4013Y2.0133
X2.9424Y1.8072
X2.9424Y1.758
X1.7924Y1.8092
X1.7924Y1.76
T8
X1.7902Y1.6782
X2.0479Y1.0757
X2.74Y0.2412
T9
X0.4459Y1.2579
X0.5467Y1.2579
X0.7985Y1.2567
X0.8993Y1.2567
X0.4413Y0.4047
X0.5421Y0.4047
X0.7993Y0.4047
X0.9001Y0.4047
T10
X2.6375Y0.4798
X2.7512Y0.6766
T11
X0.7953Y1.5087
X0.8953Y1.5087
X0.4433Y0.1507
X0.5433Y0.1507
X0.4439Y1.5091
X0.5439Y1.5091
X0.7993Y0.1507
X0.8993Y0.1507
T12
X2.7493Y0.7719
X2.8477Y0.7719
X2.9461Y0.7719
T7
G00X2.198Y0.2914
M15
G01X2.198Y0.2481
M16
G05
G00X2.198Y0.117
M15
G01X2.198Y0.0934
M16
G05
G00X2.5382Y0.2914
M15
G01X2.5382Y0.2481
M16
G05
G00X2.5382Y0.117
M15
G01X2.5382Y0.0934
M16
G05
T0
M30
