G04 #@! TF.GenerationSoftware,KiCad,Pcbnew,(5.1.2)-2*
G04 #@! TF.CreationDate,2020-01-02T13:05:31+01:00*
G04 #@! TF.ProjectId,PCB_ZoroBot_v3,5043425f-5a6f-4726-9f42-6f745f76332e,rev?*
G04 #@! TF.SameCoordinates,PX5b1e540PY8239800*
G04 #@! TF.FileFunction,Profile,NP*
%FSLAX46Y46*%
G04 Gerber Fmt 4.6, Leading zero omitted, Abs format (unit mm)*
G04 Created by KiCad (PCBNEW (5.1.2)-2) date 2020-01-02 13:05:31*
%MOMM*%
%LPD*%
G04 APERTURE LIST*
%ADD10C,0.100000*%
G04 APERTURE END LIST*
D10*
X7939634Y58211342D02*
X7973708Y57952523D01*
X8232527Y57504235D02*
X8439634Y57345316D01*
X8439634Y63823366D02*
X8680815Y63923267D01*
X20197491Y57211151D02*
X20197491Y59584151D01*
X8680815Y57245416D02*
X8939634Y57211342D01*
X7973708Y57952523D02*
X8073608Y57711342D01*
X8073608Y63457341D02*
X8232527Y63664447D01*
X20197491Y57211151D02*
X8940800Y57211151D01*
X8439634Y57345316D02*
X8680815Y57245416D01*
X8680815Y63923267D02*
X8939634Y63957341D01*
X20197491Y61539120D02*
X20197491Y63957150D01*
X8939634Y63957341D02*
X20197491Y63957150D01*
X7939634Y58211342D02*
X7939634Y62957341D01*
X7973708Y63216160D02*
X8073608Y63457341D01*
X7939634Y62957341D02*
X7973708Y63216160D01*
X8232527Y63664447D02*
X8439634Y63823366D01*
X8073608Y57711342D02*
X8232527Y57504235D01*
X8939634Y55199421D02*
X20197491Y55199230D01*
X8439634Y48587396D02*
X8680815Y48487496D01*
X20197491Y52842160D02*
X20197491Y55199230D01*
X8232527Y54906527D02*
X8439634Y55065446D01*
X8439634Y55065446D02*
X8680815Y55165347D01*
X7973708Y54458240D02*
X8073608Y54699421D01*
X20197491Y48453231D02*
X20197491Y50826231D01*
X8680815Y55165347D02*
X8939634Y55199421D01*
X20197491Y48453231D02*
X8940800Y48453231D01*
X8073608Y54699421D02*
X8232527Y54906527D01*
X7973708Y49194603D02*
X8073608Y48953422D01*
X7939634Y54199421D02*
X7973708Y54458240D01*
X8232527Y48746315D02*
X8439634Y48587396D01*
X8073608Y48953422D02*
X8232527Y48746315D01*
X7939634Y49453422D02*
X7939634Y54199421D01*
X8680815Y48487496D02*
X8939634Y48453422D01*
X7939634Y49453422D02*
X7973708Y49194603D01*
X24197920Y52848520D02*
X26271619Y52848520D01*
X24197920Y61539120D02*
X24197920Y52848520D01*
X20197491Y61539120D02*
X24197920Y61539120D01*
X22201480Y59584600D02*
X20197491Y59584151D01*
X22201480Y52838360D02*
X22201480Y59584600D01*
X20197491Y52842160D02*
X22201480Y52838360D01*
X20197491Y50826231D02*
X26270560Y50826680D01*
X74128427Y42714D02*
X86243804Y42069D01*
X65377213Y42714D02*
G75*
G03X66154453Y851031I0J777837D01*
G01*
X66844520Y1545600D02*
G75*
G03X66154453Y850434I0J-690086D01*
G01*
X74128427Y42714D02*
G75*
G02X73438360Y737880I0J690086D01*
G01*
X72661120Y1545600D02*
G75*
G02X73438360Y737283I0J-777837D01*
G01*
X66844520Y1545600D02*
X72661120Y1545600D01*
X47104039Y86398699D02*
X50246806Y87523229D01*
X28696617Y67990562D02*
X30123667Y71008024D01*
X26761273Y61609862D02*
X27572210Y64847751D01*
X35023592Y46955620D02*
X28238578Y48384172D01*
X41223647Y83255472D02*
X44086633Y84971532D01*
X79016963Y83255472D02*
X81697955Y81267048D01*
X28450330Y2780739D02*
X29054056Y2092322D01*
X35023592Y28417208D02*
X35548893Y28547275D01*
X92668401Y64847751D02*
X93479337Y61609862D01*
X33090120Y101955D02*
X34003804Y42069D01*
X69392464Y54482721D02*
X68973024Y53595521D01*
X31325020Y574913D02*
X32192070Y280589D01*
X81697955Y81267048D02*
X84171132Y79025409D01*
X29054056Y2092322D02*
X29742474Y1488596D01*
X93182070Y6128469D02*
X93241684Y7042069D01*
X93241684Y7042069D02*
X93236807Y24647108D01*
X92944961Y25691034D02*
X93146748Y25184689D01*
X92980112Y48851377D02*
X93373151Y49229020D01*
X84171132Y79025409D02*
X86412675Y76552145D01*
X91796348Y2780891D02*
X92304852Y3542233D01*
X92247412Y26520722D02*
X92640586Y26143206D01*
X44086633Y84971532D02*
X47104039Y86398699D01*
X89743356Y979961D02*
X90504544Y1488696D01*
X38542655Y81267048D02*
X41223647Y83255472D01*
X27941626Y3542069D02*
X28450330Y2780739D01*
X92709610Y4363445D02*
X93003694Y5230471D01*
X88055330Y280608D02*
X88922266Y574954D01*
X27536647Y4363285D02*
X27941626Y3542069D01*
X24795741Y41122069D02*
X24477903Y41536283D01*
X27682547Y56141842D02*
X27787134Y54946409D01*
X15995541Y40639707D02*
X15795741Y41122069D01*
X26271619Y58308076D02*
X26761273Y61609862D01*
X84691694Y46825440D02*
X85217018Y46955620D01*
X92565061Y56141843D02*
X91867725Y56202852D01*
X91440536Y15631313D02*
X91440536Y23031313D01*
X30008164Y15631313D02*
X30008164Y23031313D01*
X35158975Y55591361D02*
X35054388Y56786795D01*
X83301945Y78614472D02*
X82262714Y79214472D01*
X7063690Y37948766D02*
X7063690Y27082069D01*
X93146748Y25184689D02*
X93236807Y24647108D01*
X91440536Y23031313D02*
X90239438Y23031313D01*
X197665Y38448766D02*
X97765Y38207585D01*
X22563690Y27082069D02*
X22563690Y22082069D01*
X82262714Y79214472D02*
X81912714Y78608254D01*
X78912714Y73412102D02*
X78562714Y72805884D01*
X36027851Y28799182D02*
X35548893Y28547275D01*
X83807913Y46214220D02*
X84212731Y46573434D01*
X90504544Y1488696D02*
X91192802Y2092450D01*
X67854446Y88059125D02*
X69993805Y87523229D01*
X9063690Y40122069D02*
X9063690Y27082069D01*
X56786430Y88824075D02*
X60120305Y88987861D01*
X31368468Y56464319D02*
X28379883Y56202851D01*
X66755946Y88334292D02*
X67854446Y88059125D01*
X23581328Y42053921D02*
X23063690Y42122069D01*
X30008164Y23031313D02*
X28807066Y23031313D01*
X36931632Y45262525D02*
X36739888Y45768635D01*
X88879141Y56464319D02*
X85890557Y56725787D01*
X30123667Y71008024D02*
X31839616Y73871076D01*
X53484664Y88334292D02*
X56786430Y88824075D01*
X36996807Y30647108D02*
X36996807Y44725250D01*
X28807066Y15631313D02*
X30008164Y15631313D01*
X35054388Y56786795D02*
X34357052Y56725786D01*
X30503804Y979892D02*
X31325020Y574913D01*
X92304852Y3542233D02*
X92709610Y4363445D01*
X69722924Y55406762D02*
X69392464Y54482721D01*
X24477903Y41536283D02*
X24063690Y41854120D01*
X91543993Y67990562D02*
X92668401Y64847751D01*
X91867725Y56202852D02*
X88879141Y56464319D01*
X563691Y38814792D02*
X356584Y38655873D01*
X80412714Y76010178D02*
X78912714Y73412102D01*
X85193220Y56786796D02*
X85088633Y55591362D01*
X90239438Y23031313D02*
X90239438Y15631313D01*
X36432675Y29158314D02*
X36027851Y28799182D01*
X85217018Y28417208D02*
X84691717Y28547275D01*
X93479337Y61609862D02*
X93968992Y58308076D01*
X78562714Y72805884D02*
X79601945Y72205884D01*
X90116943Y71008024D02*
X91543993Y67990562D01*
X6563690Y38814792D02*
X6770796Y38655873D01*
X28238578Y48384172D02*
X27724542Y48565445D01*
X9063690Y27082069D02*
X11563690Y27082069D01*
X34003804Y42069D02*
X65377213Y42714D01*
X13563690Y22082069D02*
X20563690Y22082069D01*
X356584Y38655873D02*
X197665Y38448766D01*
X63454180Y88824075D02*
X66755946Y88334292D01*
X25063690Y40122069D02*
X24995541Y40639707D01*
X92460474Y54946409D02*
X92565061Y56141843D01*
X34357052Y56725786D02*
X31368468Y56464319D01*
X91192802Y2092450D02*
X91796348Y2780891D01*
X27295649Y25691034D02*
X27093862Y25184689D01*
X10063690Y41854120D02*
X9649476Y41536283D01*
X4563690Y22082069D02*
X11563690Y22082069D01*
X27572210Y64847751D02*
X28696617Y67990562D01*
X76153978Y84971532D02*
X79016963Y83255472D01*
X28971485Y26987532D02*
X35023592Y28417208D01*
X90239438Y15631313D02*
X91440536Y15631313D01*
X85890557Y56725787D02*
X85193220Y56786796D01*
X28379883Y56202851D02*
X27682547Y56141842D01*
X36069479Y79025409D02*
X38542655Y81267048D01*
X85088633Y55591362D02*
X92460474Y54946409D01*
X60120305Y88987861D02*
X63454180Y88824075D01*
X86412675Y76552145D02*
X88400995Y73871076D01*
X81912714Y78608254D02*
X80412714Y76010178D01*
X22563690Y22082069D02*
X27003804Y22082069D01*
X804872Y38914692D02*
X563691Y38814792D01*
X86243804Y42069D02*
X87157386Y101960D01*
X27787134Y54946409D02*
X35158975Y55591361D01*
X1063691Y38948766D02*
X6063690Y38948766D01*
X27063690Y6128386D02*
X27242323Y5230336D01*
X24995541Y40639707D02*
X24795741Y41122069D01*
X2563691Y15082069D02*
X63691Y15082069D01*
X27003804Y7042069D02*
X27063690Y6128386D01*
X18063690Y27082069D02*
X20563690Y27082069D01*
X25063690Y27082069D02*
X25063690Y40122069D01*
X18131838Y40639707D02*
X18063690Y40122069D01*
X6063690Y38948766D02*
X6322509Y38914692D01*
X63691Y27082069D02*
X63691Y37948766D01*
X7029616Y3956553D02*
X7063690Y4215372D01*
X6063690Y3215372D02*
X1063691Y3215372D01*
X15063690Y41854120D02*
X14581328Y42053921D01*
X6563690Y3349347D02*
X6770796Y3508266D01*
X563691Y3349347D02*
X356584Y3508266D01*
X13563690Y27082069D02*
X16063690Y27082069D01*
X6063690Y3215372D02*
X6322509Y3249447D01*
X9649476Y41536283D02*
X9331639Y41122069D01*
X4563690Y27082069D02*
X7063690Y27082069D01*
X9063690Y15082069D02*
X9063690Y2042069D01*
X19063690Y41854120D02*
X18649476Y41536283D01*
X11563690Y15082069D02*
X9063690Y15082069D01*
X7063690Y15082069D02*
X4563690Y15082069D01*
X356584Y3508266D02*
X197665Y3715372D01*
X7029616Y38207585D02*
X7063690Y37948766D01*
X14063690Y42122069D02*
X11063690Y42122069D01*
X6322509Y38914692D02*
X6563690Y38814792D01*
X18063690Y40122069D02*
X18063690Y27082069D01*
X15795741Y41122069D02*
X15477903Y41536283D01*
X11563690Y22082069D02*
X11563690Y27082069D01*
X9331639Y41122069D02*
X9131838Y40639707D01*
X6322509Y3249447D02*
X6563690Y3349347D01*
X15477903Y41536283D02*
X15063690Y41854120D01*
X18331639Y41122069D02*
X18131838Y40639707D01*
X11063690Y42122069D02*
X10546052Y42053921D01*
X63691Y27082069D02*
X2563691Y27082069D01*
X197665Y3715372D02*
X97765Y3956553D01*
X4563690Y22082069D02*
X4563690Y27082069D01*
X2563691Y27082069D02*
X2563691Y15082069D01*
X6929715Y38448766D02*
X7029616Y38207585D01*
X97765Y3956553D02*
X63691Y4215372D01*
X22563690Y27082069D02*
X25063690Y27082069D01*
X14581328Y42053921D02*
X14063690Y42122069D01*
X19546052Y42053921D02*
X19063690Y41854120D01*
X6770796Y38655873D02*
X6929715Y38448766D01*
X16063690Y40122069D02*
X15995541Y40639707D01*
X13563690Y27082069D02*
X13563690Y22082069D01*
X9131838Y40639707D02*
X9063690Y40122069D01*
X11563690Y20082069D02*
X4563690Y20082069D01*
X1063691Y38948766D02*
X804872Y38914692D01*
X63691Y4215372D02*
X63691Y15082069D01*
X9331639Y1042069D02*
X9649476Y627856D01*
X23063690Y42122069D02*
X20063690Y42122069D01*
X97765Y38207585D02*
X63691Y37948766D01*
X25063690Y15082069D02*
X22563690Y15082069D01*
X11063690Y42069D02*
X14063690Y42069D01*
X10063690Y310019D02*
X10546052Y110218D01*
X9649476Y627856D02*
X10063690Y310019D01*
X18331639Y1042069D02*
X18649476Y627856D01*
X7063690Y15082069D02*
X7063690Y4215372D01*
X6929715Y3715372D02*
X7029616Y3956553D01*
X6770796Y3508266D02*
X6929715Y3715372D01*
X16063690Y27082069D02*
X16063690Y40122069D01*
X10546052Y42053921D02*
X10063690Y41854120D01*
X804872Y3249447D02*
X563691Y3349347D01*
X20063690Y42122069D02*
X19546052Y42053921D01*
X4563690Y15082069D02*
X4563690Y20082069D01*
X9131838Y1524431D02*
X9331639Y1042069D01*
X1063691Y3215372D02*
X804872Y3249447D01*
X27003804Y20082069D02*
X22563690Y20082069D01*
X18649476Y41536283D02*
X18331639Y41122069D01*
X20563690Y22082069D02*
X20563690Y27082069D01*
X11563690Y15082069D02*
X11563690Y20082069D01*
X24063690Y41854120D02*
X23581328Y42053921D01*
X18063690Y15082069D02*
X18063690Y2042069D01*
X16063690Y2042069D02*
X16063690Y15082069D01*
X10546052Y110218D02*
X11063690Y42069D01*
X23581328Y110218D02*
X24063690Y310019D01*
X14581328Y110218D02*
X15063690Y310019D01*
X20063690Y42069D02*
X23063690Y42069D01*
X14063690Y42069D02*
X14581328Y110218D01*
X22563690Y20082069D02*
X22563690Y15082069D01*
X24477903Y627856D02*
X24795741Y1042069D01*
X18063690Y2042069D02*
X18131838Y1524431D01*
X20563690Y15082069D02*
X18063690Y15082069D01*
X18649476Y627856D02*
X19063690Y310019D01*
X19546052Y110218D02*
X20063690Y42069D01*
X23063690Y42069D02*
X23581328Y110218D01*
X25063690Y2042069D02*
X25063690Y15082069D01*
X20563690Y15082069D02*
X20563690Y20082069D01*
X15477903Y627856D02*
X15795741Y1042069D01*
X15795741Y1042069D02*
X15995541Y1524431D01*
X9063690Y2042069D02*
X9131838Y1524431D01*
X27003804Y20082069D02*
X27003804Y7042069D01*
X18131838Y1524431D02*
X18331639Y1042069D01*
X16063690Y15082069D02*
X13563690Y15082069D01*
X24995541Y1524431D02*
X25063690Y2042069D01*
X15063690Y310019D02*
X15477903Y627856D01*
X28807066Y23031313D02*
X28807066Y15631313D01*
X24063690Y310019D02*
X24477903Y627856D01*
X19063690Y310019D02*
X19546052Y110218D01*
X15995541Y1524431D02*
X16063690Y2042069D01*
X24795741Y1042069D02*
X24995541Y1524431D01*
X13563690Y20082069D02*
X13563690Y15082069D01*
X20563690Y20082069D02*
X13563690Y20082069D01*
X50201366Y57326311D02*
X50153056Y58306475D01*
X56324742Y67546259D02*
X57248677Y67877015D01*
X41684894Y72805883D02*
X41334894Y73412101D01*
X54598686Y49992490D02*
X53810361Y50576956D01*
X39834894Y76010177D02*
X38334894Y78608254D01*
X63981370Y49069894D02*
X63057435Y48739138D01*
X50583188Y61209390D02*
X50913648Y62133431D01*
X50344891Y60257409D02*
X50583188Y61209390D01*
X51333089Y63020631D02*
X51837471Y63862447D01*
X53080856Y65378012D02*
X53807886Y66037165D01*
X58200582Y68115616D02*
X59171291Y68259766D01*
X59174479Y48356072D02*
X58203724Y48499911D01*
X62105530Y48500536D02*
X61134821Y48356386D01*
X55437677Y67126534D02*
X56324742Y67546259D01*
X37984894Y79214471D02*
X36945663Y78614471D01*
X57251742Y48738208D02*
X56327702Y49068668D01*
X65710090Y49994270D02*
X64868436Y49489619D01*
X53810361Y50576956D02*
X53083121Y51235876D01*
X58203724Y48499911D02*
X57251742Y48738208D01*
X51839250Y52751042D02*
X51334599Y53592697D01*
X55440501Y49488109D02*
X54598686Y49992490D01*
X64865611Y67128044D02*
X65707427Y66623662D01*
X67225256Y51238141D02*
X66498227Y50578988D01*
X79601945Y72205884D02*
X83301945Y78614472D01*
X40645663Y72205883D02*
X41684894Y72805883D01*
X66498227Y50578988D02*
X65710090Y49994270D01*
X36945663Y78614471D02*
X40645663Y72205883D01*
X59171291Y68259766D02*
X59730775Y68287342D01*
X38334894Y78608254D02*
X37984894Y79214471D01*
X57248677Y67877015D02*
X58200582Y68115616D01*
X56327702Y49068668D02*
X55440501Y49488109D01*
X67222992Y65380276D02*
X67882145Y64653247D01*
X64868436Y49489619D02*
X63981370Y49069894D01*
X50584118Y55403697D02*
X50345516Y56355602D01*
X50914874Y54479762D02*
X50584118Y55403697D01*
X50153056Y58306475D02*
X50201052Y59286654D01*
X93003694Y5230471D02*
X93182070Y6128469D01*
X69993805Y87523229D02*
X73136571Y86398699D01*
X73136571Y86398699D02*
X76153978Y84971532D01*
X50201052Y59286654D02*
X50344891Y60257409D01*
X83243804Y30647108D02*
X83243804Y44725250D01*
X27993199Y26520722D02*
X27600024Y26143206D01*
X50246806Y87523229D02*
X52386164Y88059125D01*
X36931628Y30109884D02*
X36996807Y30647108D01*
X33827936Y76552145D02*
X36069479Y79025409D01*
X83500723Y45768635D02*
X83807913Y46214220D01*
X29742474Y1488596D02*
X30503804Y979892D01*
X32192070Y280589D02*
X33090120Y101955D01*
X83308979Y45262525D02*
X83500723Y45768635D01*
X27242323Y5230336D02*
X27536647Y4363285D01*
X83243804Y44725250D02*
X83308979Y45262525D01*
X35548917Y46825440D02*
X35023592Y46955620D01*
X83807935Y29158314D02*
X84212760Y28799182D01*
X63054371Y67877944D02*
X63978411Y67547484D01*
X27026388Y24781919D02*
X27003804Y24647108D01*
X67882145Y64653247D02*
X68466863Y63865110D01*
X88922266Y574954D02*
X89743356Y979961D01*
X28457361Y26806478D02*
X27993199Y26520722D01*
X52386164Y88059125D02*
X53484664Y88334292D01*
X67884177Y51965381D02*
X67225256Y51238141D01*
X53083121Y51235876D02*
X52423968Y51962906D01*
X88400995Y73871076D02*
X90116943Y71008024D01*
X93373151Y49229020D02*
X93677386Y49681274D01*
X61131634Y68260080D02*
X62102389Y68116241D01*
X60575338Y48328811D02*
X60154658Y48308076D01*
X27260498Y48851377D02*
X26867460Y49229020D01*
X36739876Y29603831D02*
X36432675Y29158314D01*
X65707427Y66623662D02*
X66495751Y66039197D01*
X51837471Y63862447D02*
X52421936Y64650771D01*
X92516069Y48565445D02*
X92980112Y48851377D01*
X68468642Y52753706D02*
X67884177Y51965381D01*
X36931628Y30109884D02*
X36739876Y29603831D01*
X36996807Y44725250D02*
X36931632Y45262525D01*
X26361566Y50187661D02*
X26270560Y50826680D01*
X27600024Y26143206D02*
X27295649Y25691034D01*
X70153056Y58309678D02*
X70105060Y57329499D01*
X83500735Y29603831D02*
X83807935Y29158314D01*
X31839616Y73871076D02*
X33827936Y76552145D01*
X69391239Y62136390D02*
X69721995Y61212455D01*
X28971485Y26987532D02*
X28457361Y26806478D01*
X63978411Y67547484D02*
X64865611Y67128044D01*
X59730775Y68287342D02*
X60151455Y68308076D01*
X54596022Y66621883D02*
X55437677Y67126534D01*
X87157386Y101960D02*
X88055330Y280608D01*
X70104746Y59289841D02*
X70153056Y58309678D01*
X62102389Y68116241D02*
X63054371Y67877944D01*
X70105060Y57329499D02*
X69961221Y56358744D01*
X91269125Y26987532D02*
X85217018Y28417208D01*
X92640586Y26143206D02*
X92944961Y25691034D01*
X83308982Y30109884D02*
X83500735Y29603831D01*
X66495751Y66039197D02*
X67222992Y65380276D01*
X69960597Y60260550D02*
X70104746Y59289841D01*
X92002033Y48384172D02*
X92516069Y48565445D01*
X93968992Y50725250D02*
X93968992Y58308076D01*
X26563224Y49681274D02*
X26361566Y50187661D01*
X41334894Y73412101D02*
X39834894Y76010177D01*
X61134821Y48356386D02*
X60575338Y48328811D01*
X69961221Y56358744D02*
X69722924Y55406762D01*
X68973024Y53595521D02*
X68468642Y52753706D01*
X84212760Y28799182D02*
X84691717Y28547275D01*
X52423968Y51962906D02*
X51839250Y52751042D01*
X68466863Y63865110D02*
X68971514Y63023456D01*
X63057435Y48739138D02*
X62105530Y48500536D01*
X60154658Y48308076D02*
X59174479Y48356072D01*
X53807886Y66037165D02*
X54596022Y66621883D01*
X83243804Y30647108D02*
X83308982Y30109884D01*
X85217018Y46955620D02*
X92002033Y48384172D01*
X36739888Y45768635D02*
X36432697Y46214220D01*
X91269125Y26987532D02*
X91783249Y26806478D01*
X52421936Y64650771D02*
X53080856Y65378012D01*
X60151455Y68308076D02*
X61131634Y68260080D01*
X27724542Y48565445D02*
X27260498Y48851377D01*
X26271619Y52848520D02*
X26271619Y58308076D01*
X68971514Y63023456D02*
X69391239Y62136390D01*
X91783249Y26806478D02*
X92247412Y26520722D01*
X93879044Y50187661D02*
X93968992Y50725250D01*
X84212731Y46573434D02*
X84691694Y46825440D01*
X93677386Y49681274D02*
X93879044Y50187661D01*
X27093862Y25184689D02*
X27026388Y24781919D01*
X69721995Y61212455D02*
X69960597Y60260550D01*
X51334599Y53592697D02*
X50914874Y54479762D01*
X36432697Y46214220D02*
X36027879Y46573434D01*
X36027879Y46573434D02*
X35548917Y46825440D01*
X50345516Y56355602D02*
X50201366Y57326311D01*
X50913648Y62133431D02*
X51333089Y63020631D01*
X27003804Y24647108D02*
X27003804Y22082069D01*
X26867460Y49229020D02*
X26563224Y49681274D01*
M02*
